HIERARCHY
ROOT Hips
{
	OFFSET 55.352901 -13.969310 56.333298
	CHANNELS 6 Xposition Yposition Zposition Xrotation Yrotation Zrotation
	JOINT spine
	{
		OFFSET 0.000000 -0.467660 8.132492
		CHANNELS 3 Xrotation Yrotation Zrotation
		JOINT spine1
		{
			OFFSET 0.000000 -0.000002 10.349800
			CHANNELS 3 Xrotation Yrotation Zrotation
			JOINT spine2
			{
				OFFSET 0.000000 -0.000001 9.916992
				CHANNELS 3 Xrotation Yrotation Zrotation
				JOINT Neck
				{
					OFFSET 0.000000 -1.213904 25.460999
					CHANNELS 3 Xrotation Yrotation Zrotation
					JOINT Head
					{
						OFFSET 0.000000 -0.000001 7.692451
						CHANNELS 3 Xrotation Yrotation Zrotation
						End Site
						{
							OFFSET 0.000000 6.140627 18.619995
						}
					}
				}
				JOINT RightShoulder
				{
					OFFSET -4.175751 0.581443 10.709602
					CHANNELS 3 Xrotation Yrotation Zrotation
					JOINT RightArm
					{
						OFFSET 0.000000 -0.000003 14.046600
						CHANNELS 3 Xrotation Yrotation Zrotation
						JOINT RightArmRoll
						{
							OFFSET 0.000000 -0.000001 7.090988
							CHANNELS 3 Xrotation Yrotation Zrotation
							JOINT RightForeArm
							{
								OFFSET 0.000000 -0.000003 20.653503
								CHANNELS 3 Xrotation Yrotation Zrotation
								JOINT RightForeArmRoll
								{
									OFFSET 0.000000 -0.000002 7.957184
									CHANNELS 3 Xrotation Yrotation Zrotation
									JOINT RightHand
									{
										OFFSET 0.000000 -0.000003 15.968292
										CHANNELS 3 Xrotation Yrotation Zrotation
										End Site
										{
											OFFSET 0.000000 0.000000 0.100006
										}
									}
								}
							}
						}
					}
				}
				JOINT LeftShoulder
				{
					OFFSET 4.175751 0.581443 10.709602
					CHANNELS 3 Xrotation Yrotation Zrotation
					JOINT LeftArm
					{
						OFFSET 0.000000 -0.000003 14.046600
						CHANNELS 3 Xrotation Yrotation Zrotation
						JOINT LeftArmRoll
						{
							OFFSET 0.000000 -0.000001 7.090988
							CHANNELS 3 Xrotation Yrotation Zrotation
							JOINT LeftForeArm
							{
								OFFSET 0.000000 -0.000003 20.653503
								CHANNELS 3 Xrotation Yrotation Zrotation
								JOINT LeftForeArmRoll
								{
									OFFSET 0.000000 -0.000002 7.957184
									CHANNELS 3 Xrotation Yrotation Zrotation
									JOINT LeftHand
									{
										OFFSET 0.000000 -0.000003 15.968292
										CHANNELS 3 Xrotation Yrotation Zrotation
										End Site
										{
											OFFSET 0.000000 0.000000 0.100006
										}
									}
								}
							}
						}
					}
				}
			}
		}
	}
	JOINT RightUpLeg
	{
		OFFSET -7.208340 1.108841 -1.321819
		CHANNELS 3 Xrotation Yrotation Zrotation
		JOINT RightUpLegRoll
		{
			OFFSET 0.000000 -0.000004 18.723804
			CHANNELS 3 Xrotation Yrotation Zrotation
			JOINT RightLeg
			{
				OFFSET 0.000000 0.000004 -23.186604
				CHANNELS 3 Xrotation Yrotation Zrotation
				JOINT RightLegRoll
				{
					OFFSET 0.000000 -0.000004 23.262402
					CHANNELS 3 Xrotation Yrotation Zrotation
					JOINT RightFoot
					{
						OFFSET 0.000000 -0.000003 19.362099
						CHANNELS 3 Xrotation Yrotation Zrotation
						JOINT RightToeBase
						{
							OFFSET 0.000000 -0.000003 16.185699
							CHANNELS 3 Xrotation Yrotation Zrotation
							End Site
							{
								OFFSET 0.006859 0.903522 7.838631
							}
						}
					}
				}
			}
		}
	}
	JOINT LeftUpLeg
	{
		OFFSET 7.208340 1.108841 -1.321819
		CHANNELS 3 Xrotation Yrotation Zrotation
		JOINT LeftUpLegRoll
		{
			OFFSET 0.000000 -0.000004 18.723904
			CHANNELS 3 Xrotation Yrotation Zrotation
			JOINT LeftLeg
			{
				OFFSET 0.000000 -0.000004 23.186501
				CHANNELS 3 Xrotation Yrotation Zrotation
				JOINT LeftLegRoll
				{
					OFFSET 0.000000 -0.000004 23.477501
					CHANNELS 3 Xrotation Yrotation Zrotation
					JOINT LeftFoot
					{
						OFFSET 0.000000 -0.000003 19.147003
						CHANNELS 3 Xrotation Yrotation Zrotation
						JOINT LeftToeBase
						{
							OFFSET 0.000000 -0.000003 16.185699
							CHANNELS 3 Xrotation Yrotation Zrotation
							End Site
							{
								OFFSET -0.030746 0.903522 7.838623
							}
						}
					}
				}
			}
		}
	}
}
MOTION
Frames: 4
Frame Time: 0.041667
55.669292 -55.399605 96.605103 -2.490625 0.577091 -0.379242 -1.378938 -0.298362 0.095705 1.239507 -0.597279 0.176804 2.884625 -0.594993 0.183886 13.855653 -0.267356 -5.759948 6.695144 -1.722053 -5.552724 -20.028544 -58.217206 -23.683491 -43.547148 -118.281336 -19.927482 -0.000005 -0.000001 -0.000007 1.736084 -6.093465 -0.527680 -0.000001 0.000008 -2.999990 -5.000235 -7.999240 0.000105 -16.434577 59.840633 19.434221 -43.964893 117.177646 31.315943 0.000002 -0.000000 0.000001 0.074129 7.957564 1.268829 0.000005 -0.000001 3.045530 -5.000215 7.998982 -0.000114 -0.605382 -174.971292 2.939852 -179.999991 0.000005 -1.112005 172.847130 -2.084666 -0.382553 -0.000002 0.000000 0.085154 68.837160 6.884777 2.157936 25.456953 -7.355617 0.000001 -0.167964 175.382018 -0.522738 -0.000019 -0.000005 -1.112880 -9.301708 1.413968 0.457695 -0.000001 -0.000004 -0.190001 70.750009 -6.864761 -2.086523 25.554222 7.355365 -0.144875 
55.670696 -55.397209 96.605209 -2.485236 0.576112 -0.374844 -1.379056 -0.298259 0.094949 1.240207 -0.596279 0.176275 2.885315 -0.594008 0.183348 13.870067 -0.278615 -5.761455 6.697749 -1.715518 -5.555240 -20.032672 -58.219829 -23.688409 -43.561649 -118.280913 -19.944280 -0.000002 -0.000000 -0.000007 1.736599 -6.094453 -0.527679 0.000003 0.000007 -2.999990 -5.000236 -7.999241 0.000101 -16.438100 59.838953 19.438344 -43.955396 117.183930 31.315430 0.000002 -0.000002 0.000000 0.074130 7.960865 1.268217 0.000005 -0.000000 3.045531 -5.000210 7.998982 -0.000115 -0.613120 -174.970295 2.938073 -179.999991 0.000005 -1.112004 172.847376 -2.083677 -0.382419 -0.000003 0.000000 0.085227 68.835473 6.884108 2.158916 25.456953 -7.355615 0.000001 -0.175935 175.384027 -0.519598 -0.000020 -0.000005 -1.112880 -9.298844 1.413150 0.457694 -0.000001 -0.000004 -0.189863 70.745631 -6.864738 -2.086391 25.554326 7.355362 -0.144947 
55.653797 -55.374908 96.599503 -2.479818 0.575092 -0.370335 -1.379198 -0.298104 0.094149 1.240907 -0.595171 0.175705 2.886025 -0.592916 0.182768 13.883883 -0.290878 -5.762951 6.700451 -1.708149 -5.557865 -20.037548 -58.223046 -23.694182 -43.576303 -118.280572 -19.961431 -0.000002 -0.000002 -0.000011 1.737115 -6.095692 -0.527683 -0.000002 0.000009 -2.999992 -5.000234 -7.999243 0.000099 -16.441720 59.836856 19.442591 -43.943214 117.191648 31.311923 0.000001 -0.000002 0.000001 0.074129 7.964126 1.267642 0.000004 -0.000001 3.045530 -5.000215 7.998982 -0.000115 -0.620691 -174.970281 2.936378 -179.999991 0.000005 -1.112005 172.847991 -2.082677 -0.382271 -0.000003 -0.000000 0.085312 68.833567 6.883389 2.159900 25.456955 -7.355616 0.000001 -0.183813 175.386007 -0.516411 -0.000020 -0.000005 -1.112880 -9.295721 1.412334 0.457695 -0.000001 -0.000003 -0.189722 70.741055 -6.864744 -2.086173 25.554323 7.355362 -0.145057 
55.660698 -55.378311 96.602402 -2.474353 0.574044 -0.365751 -1.379361 -0.297911 0.093320 1.241617 -0.593988 0.175108 2.886725 -0.591748 0.182161 13.897400 -0.303843 -5.764451 6.703225 -1.700205 -5.560556 -20.042941 -58.226796 -23.700575 -43.592562 -118.279629 -19.980402 -0.000002 -0.000001 -0.000009 1.737632 -6.097099 -0.527681 -0.000000 0.000008 -2.999990 -5.000234 -7.999241 0.000100 -16.445349 59.834342 19.446839 -43.932224 117.198574 31.309816 0.000002 -0.000001 0.000002 0.074133 7.967353 1.267105 0.000003 -0.000001 3.045533 -5.000211 7.998981 -0.000114 -0.628147 -174.969297 2.934714 -179.999991 0.000005 -1.110994 172.848811 -2.081691 -0.383114 -0.000003 0.000000 0.085404 68.831655 6.882708 2.160691 25.456955 -7.355616 0.000001 -0.191633 175.387032 -0.513189 -0.000020 -0.000004 -1.112880 -9.292426 1.411499 0.457694 -0.000002 -0.000003 -0.189580 70.736369 -6.864751 -2.085963 25.554425 7.355364 -0.145204 
